# xmcd
#
# Track frame offsets: 
#        150
#        15382
#        35663
#        56083
#        71973
#        91131
#        110730
#        137606
#        158091
#
# Disc length: 2441 seconds
#
# Revision: 0
# Processed by: cddbd v1.5.2PL0 Copyright (c) Steve Scherf et al.
# Submitted via: ExactAudioCopy v0.95a5
#
DISCID=77098709
DTITLE=The Blues Rock Machine - Live at Mahogany Hall 2007
DYEAR=2007
DGENRE=Blues
TTITLE0=Mexican Blackbird
TTITLE1=One Way Out
TTITLE2=Redhouse Blues
TTITLE3=Dust My Broom
TTITLE4=Just Got Back From Baby's
TTITLE5=Thightrope
TTITLE6=Little Red Rooster
TTITLE7=Jesus Just Left Chicago
TTITLE8=Blue Jean Blues
EXTD=
EXTT0=
EXTT1=
EXTT2=
EXTT3=
EXTT4=
EXTT5=
EXTT6=
EXTT7=
EXTT8=
PLAYORDER=
